<?xml version="1.0" encoding="UTF-8"?>
<svg width="87px" height="87px" style="animation-play-state:paused;background-attachment:initial;background-clip:initial;background-color:initial;background-origin:initial;background-position-x:initial;background-position-y:initial;background-repeat-x:initial;background-repeat-y:initial;background-size:initial;height:100%;width:100%" version="1.1" viewBox="0 0 100 100" xml:space="preserve" xmlns="http://www.w3.org/2000/svg"><g class="ldl-scale" style="animation-play-state:paused;transform-origin:50% 50%;transform:rotate(0deg) scale(0.8, 0.8)"><path d="M62.726 74.947l-41.088 9.655V16.896l39.726-9.31a2.776 2.776 0 0 1 3.457 2.691v61.979c0 1.27-.863 2.379-2.095 2.691z" fill="#f8b26a" style="animation-play-state:paused"/>
<path d="M62.341 10.661l13.541 7.899-40.703 9.62c-7.102.104-11.615-2.529-13.541-7.899l40.703-9.62z" fill="#ebebeb" style="animation-play-state:paused"/>
<path d="M76.267 82.845L35.179 92.5V24.795l39.726-9.31a2.776 2.776 0 0 1 3.457 2.691v61.979c0 1.27-.863 2.379-2.095 2.69z" fill="#fea141" style="animation-play-state:paused"/>
<path d="M21.638 16.896v67.705c1.952 6.584 7.361 7.836 13.541 7.899V24.795c-7.282.007-11.795-2.626-13.541-7.899z" fill="#ff9e3a" style="animation-play-state:paused"/>
<metadata style="animation-play-state:paused" xmlnsD="https://loading.io/stock/"><dName style="animation-play-state:paused">book</dName>
<dTags style="animation-play-state:paused">bible,document,dictionary,publish,dairy,manual,hardcover,paperback,booklet,book,books</dTags>
<dLicense style="animation-play-state:paused">by</dLicense>
<dSlug style="animation-play-state:paused">fs9wte</dSlug></metadata></g></svg>